<svg xmlns="http://www.w3.org/2000/svg" viewBox="0 0 64 64"><defs><style>.cls-1{isolation:isolate;}.cls-2{fill:#082648;}.cls-3{fill:#95d6ef;}.cls-4{fill:none;stroke:#000;stroke-miterlimit:10;stroke-width:2px;}.cls-5{opacity:0.19;mix-blend-mode:multiply;}.cls-6{mix-blend-mode:overlay;}.cls-7{fill:#fff;}</style></defs><title>Icon Color</title><g class="cls-1"><g id="Layer_3" data-name="Layer 3"><g id="Vector"><path class="cls-2" d="M22.14,28.76c2.22-3.08-4.17-6.1-5.66,0h-.64c-.63-2.62-2.17-3.56-3.55-3.53a20.25,20.25,0,0,1,40,3.53Z"/><path class="cls-3" d="M52.32,28.76V36.6H23.43c3.16-.73,2.34-7-7.27-5,3.41-.71,5.22-1.78,6-2.86Z"/><path class="cls-2" d="M61.56,48.17c-12.61,0-16.92,6-29.06,6.31l-.5,0-.5,0c-12.14-.33-16.45-6.31-29.06-6.31L11.78,36.6h2c-1.35,6.1,6.2,6.1,4.84,0h3.54a3,3,0,0,0,1.31,0H52.22Z"/><path class="cls-3" d="M16.16,31.62a14.49,14.49,0,0,1-4.47-1.56c-3.54-2.08-1.7-4.79.6-4.83,1.38,0,2.92.91,3.55,3.53A11.23,11.23,0,0,1,16.16,31.62Z"/><path class="cls-3" d="M16.16,31.62A14.22,14.22,0,0,1,11.69,36c-5,2.71-6.83-4.15,0-4.76A15,15,0,0,1,16.16,31.62Z"/><path class="cls-3" d="M13.74,36.6a14.28,14.28,0,0,1,2.42-5,14.1,14.1,0,0,1,2.42,5C19.94,42.7,12.39,42.7,13.74,36.6Z"/><path class="cls-3" d="M22.14,28.76c-.76,1.08-2.57,2.15-6,2.86a11.23,11.23,0,0,1,.32-2.86C18,22.66,24.36,25.68,22.14,28.76Z"/><path class="cls-3" d="M23.43,36.6H22.12c-1.57-.31-3.65-1.7-6-5C25.77,29.63,26.59,35.87,23.43,36.6Z"/></g><g id="Line"><path class="cls-4" d="M19,14.3A20,20,0,0,1,32,9.5,20.46,20.46,0,0,1,52.26,28.76H22.14c2.22-3.08-4.17-6.1-5.66,0h-.64c-.63-2.62-2.17-3.56-3.55-3.53A20.73,20.73,0,0,1,16.36,17"/><line class="cls-4" x1="36" y1="36.6" x2="26" y2="36.6"/><path class="cls-4" d="M16.16,31.62c3.41-.71,5.22-1.78,6-2.86H52.32V36.6H40"/><path class="cls-4" d="M41,36.6H52.22l9.34,11.57c-12.61,0-16.92,6-29.06,6.31l-.5,0-.5,0c-12.14-.33-16.45-6.31-29.06-6.31L11.78,36.6h2c-1.35,6.1,6.2,6.1,4.84,0h3.54a3,3,0,0,0,1.31,0H37"/><path class="cls-4" d="M16.16,31.62a14.49,14.49,0,0,1-4.47-1.56c-3.54-2.08-1.7-4.79.6-4.83,1.38,0,2.92.91,3.55,3.53A11.23,11.23,0,0,1,16.16,31.62Z"/><path class="cls-4" d="M16.16,31.62A14.22,14.22,0,0,1,11.69,36c-5,2.71-6.83-4.15,0-4.76A15,15,0,0,1,16.16,31.62Z"/><path class="cls-4" d="M13.74,36.6a14.28,14.28,0,0,1,2.42-5,14.1,14.1,0,0,1,2.42,5C19.94,42.7,12.39,42.7,13.74,36.6Z"/><path class="cls-4" d="M22.14,28.76c-.76,1.08-2.57,2.15-6,2.86a11.23,11.23,0,0,1,.32-2.86C18,22.66,24.36,25.68,22.14,28.76Z"/><path class="cls-4" d="M23.43,36.6H22.12c-1.57-.31-3.65-1.7-6-5C25.77,29.63,26.59,35.87,23.43,36.6Z"/></g><g id="Shadow"><path class="cls-5" d="M52.22,36.6h.1V28.76h-.06A20.26,20.26,0,0,0,28.38,9.83c.56.37,1.11.75,1.64,1.17,5.23,4.11,8.61,10.24,10.32,16.67,1.62,6.12,1.52,13.43-3,17.87-3.9,3.83-10,4.4-15.4,3.79S11.12,47.15,5.67,47.55a11,11,0,0,0-2.95.63c12.39.09,16.73,6,28.78,6.3l.5,0,.5,0c12.14-.33,16.45-6.31,29.06-6.31Z"/></g><g id="Highlight"><g class="cls-6"><path class="cls-7" d="M13.74,36.6h-2L2.44,48.17a35.69,35.69,0,0,1,6.37.56,11.18,11.18,0,0,0,3-2.23A13.2,13.2,0,0,0,14.61,41"/><path class="cls-7" d="M15.84,28.76h.64a11.23,11.23,0,0,0-.32,2.86c.11.16.22.29.33.44a121.77,121.77,0,0,1,6-19.24,9.41,9.41,0,0,1,.69-1.25A20.61,20.61,0,0,0,12.29,25.23"/></g></g></g></g></svg>