<svg xmlns="http://www.w3.org/2000/svg" viewBox="0 0 64 64"><defs><style>.cls-1{isolation:isolate;}.cls-2{fill:#082648;}.cls-3{fill:#001223;}.cls-4{fill:#95d6ef;}.cls-5{fill:none;stroke:#000;stroke-miterlimit:10;stroke-width:2px;}.cls-6{opacity:0.19;mix-blend-mode:multiply;}.cls-7{fill:#fff;mix-blend-mode:overlay;}</style></defs><title>Icon Color</title><g class="cls-1"><g id="Layer_3" data-name="Layer 3"><g id="Vector"><path class="cls-2" d="M56.49,26.33H50.43V45.51a2.23,2.23,0,0,1,0-.23V58.52a4.22,4.22,0,0,1-4.21,4.22l-13.43,0H31.24l-13.42,0a4.21,4.21,0,0,1-4.21-4.22V45.28a2.23,2.23,0,0,1,0,.23V26.33H7.5a1.84,1.84,0,0,1-1.83-2.1l1.26-9.49C8.1,7.63,13.58,1.38,20.48,1.2h.41a7.15,7.15,0,0,0-.15,1.4c0,4.79,5.05,8.67,11.25,8.67S43.24,7.39,43.24,2.6a7.15,7.15,0,0,0-.14-1.4h.42c6.9.18,12.38,6.43,13.55,13.54l1.26,9.49A1.85,1.85,0,0,1,56.49,26.33Z"/><path class="cls-3" d="M43.24,2.6c0,4.79-5,8.67-11.25,8.67S20.74,7.39,20.74,2.6a7.15,7.15,0,0,1,.15-1.4H43.1A7.15,7.15,0,0,1,43.24,2.6Z"/><path class="cls-4" d="M38.11,20.76H45.8a0,0,0,0,1,0,0V27a2.53,2.53,0,0,1-2.53,2.53H40.64A2.53,2.53,0,0,1,38.11,27V20.76A0,0,0,0,1,38.11,20.76Z"/></g><g id="Line"><path class="cls-5" d="M13.57,36V26.33H7.5a1.84,1.84,0,0,1-1.83-2.1l1.26-9.49C8.1,7.63,13.58,1.38,20.48,1.2h.41a7.15,7.15,0,0,0-.15,1.4c0,4.79,5.05,8.67,11.25,8.67S43.24,7.39,43.24,2.6a7.15,7.15,0,0,0-.14-1.4h.42c6.9.18,12.38,6.43,13.55,13.54l1.26,9.49a1.85,1.85,0,0,1-1.84,2.1H50.43V45.51a2.23,2.23,0,0,1,0-.23V58.52a4.22,4.22,0,0,1-4.21,4.22l-13.43,0H31.24l-13.42,0a4.21,4.21,0,0,1-4.21-4.22V45.28a2.23,2.23,0,0,1,0,.23V42"/><path class="cls-5" d="M43.24,2.6c0,4.79-5,8.67-11.25,8.67S20.74,7.39,20.74,2.6a7.15,7.15,0,0,1,.15-1.4H43.1A7.15,7.15,0,0,1,43.24,2.6Z"/><polyline class="cls-5" points="13.57 26.33 13.57 18.18 13.57 15.18"/><polyline class="cls-5" points="50.43 26.33 50.43 18.18 50.43 15.18"/><path class="cls-5" d="M38.11,20.76H45.8a0,0,0,0,1,0,0V27a2.53,2.53,0,0,1-2.53,2.53H40.64A2.53,2.53,0,0,1,38.11,27V20.76A0,0,0,0,1,38.11,20.76Z"/></g><g id="Shadow"><path class="cls-6" d="M58.34,24.23l-1.26-9.49C55.91,7.63,50.42,1.38,43.53,1.2H34.34a28.31,28.31,0,0,1,2.1,4.94c2.27,7.06,2.29,14.63,2.28,22.05,0,4.34,0,8.75-1.26,12.91s-3.93,8.1-7.93,9.81c-2.9,1.24-6.16,1.2-9.31,1.15a31,31,0,0,0-6.61.4v6.06a4.21,4.21,0,0,0,4.22,4.22l13.41,0h1.52l13.42,0a4.22,4.22,0,0,0,4.22-4.22V45.28a2.08,2.08,0,0,0,0,.23V26.33h6.06A1.85,1.85,0,0,0,58.34,24.23Z"/></g><g id="Highlight"><path class="cls-7" d="M13.58,26.33V45.51a2.08,2.08,0,0,0,0-.23V58.52a4.21,4.21,0,0,0,4.22,4.22l10.74,0a21.31,21.31,0,0,1-9-9.42C17.44,48.65,17.69,43.28,18,38.14q.68-12,1.36-24.09c.23-4.05.49-8.22,2.23-11.89.16-.33.33-.65.52-1H20.48C13.59,1.38,8.1,7.63,6.93,14.74L5.67,24.23a1.85,1.85,0,0,0,1.84,2.1Z"/></g></g></g></svg>