<svg xmlns="http://www.w3.org/2000/svg" width="128" height="128" viewBox="0 0 128 128">
  <title>PIJAMA</title>
  <path d="M77.87,32.58a1.746,1.746,0,0,1-1.75,1.75H57.16a1.746,1.746,0,0,1-1.75-1.75,1.714,1.714,0,0,1,.82-1.47,1.669,1.669,0,0,1,.93-.28H76.12a1.669,1.669,0,0,1,.93.28A1.714,1.714,0,0,1,77.87,32.58Z" fill="#254b8e"/>
  <g>
    <path d="M102.5,50.91V109H30.79V50.91a18.326,18.326,0,0,1,16.15-18.2L54,52.5l10.89-4.27,1.75-.69,1.75.69,10.9,4.27,7.06-19.79A18.334,18.334,0,0,1,102.5,50.91Z" fill="#62dff4"/>
    <polygon points="81.94 23.39 76.12 32.58 66.64 47.54 57.16 32.58 51.34 23.39 81.94 23.39" fill="#2b74f7"/>
    <path d="M68.39,47.54V109h-3.5V47.54a1.714,1.714,0,0,1,.82-1.47l.93,1.47.93-1.47A1.714,1.714,0,0,1,68.39,47.54Z" fill="#2b74f7"/>
    <rect x="30.79" y="66.58" width="71.71" height="3.5" fill="#2b74f7"/>
    <circle cx="58.833" cy="60.208" r="2.333" fill="#254b8e"/>
    <circle cx="58.833" cy="77.771" r="2.333" fill="#254b8e"/>
    <circle cx="58.833" cy="95.333" r="2.333" fill="#254b8e"/>
    <path d="M77.083,70.08H94.75a0,0,0,0,1,0,0v2.857a2.939,2.939,0,0,1-2.939,2.939H80.022a2.939,2.939,0,0,1-2.939-2.939V70.08A0,0,0,0,1,77.083,70.08Z" fill="#2b74f7"/>
    <polygon points="66.64 47.54 64.89 48.23 54 52.5 46.94 32.71 46.63 31.84 51.34 23.39 56.23 31.11 57.16 32.58 58.27 34.33 65.71 46.07 66.64 47.54" fill="#5097ff"/>
    <polygon points="86.66 31.84 86.35 32.71 79.29 52.5 68.39 48.23 66.64 47.54 67.57 46.07 75.01 34.33 76.12 32.58 77.05 31.11 81.94 23.39 86.66 31.84" fill="#5097ff"/>
  </g>
</svg>
