<svg xmlns="http://www.w3.org/2000/svg" viewBox="0 0 64 64"><defs><style>.cls-1{isolation:isolate;}.cls-2,.cls-8{fill:#fff;}.cls-3{fill:#ff1800;}.cls-4,.cls-5,.cls-6{fill:none;}.cls-5,.cls-6{stroke:#000;stroke-miterlimit:10;stroke-width:2px;}.cls-6{stroke-linecap:round;}.cls-7{opacity:0.19;mix-blend-mode:multiply;}.cls-8{mix-blend-mode:overlay;}</style></defs><title>Icon Color</title><g class="cls-1"><g id="Layer_3" data-name="Layer 3"><g id="Vector"><path class="cls-2" d="M18.38,2v8.65H12.52a.53.53,0,0,1-.53-.52V2.5A.52.52,0,0,1,12.52,2Z"/><rect class="cls-2" x="18.38" y="1.98" width="5.54" height="8.66"/><rect class="cls-2" x="23.92" y="1.98" width="5.55" height="8.66"/><rect class="cls-2" x="29.47" y="1.98" width="5.54" height="8.66"/><rect class="cls-2" x="35.01" y="1.98" width="5.55" height="8.66"/><rect class="cls-2" x="40.56" y="1.98" width="5.54" height="8.66"/><path class="cls-2" d="M52.49,2.5v7.61a.53.53,0,0,1-.53.52H46.1V2H52A.52.52,0,0,1,52.49,2.5Z"/><path class="cls-3" d="M15,60.45a5.44,5.44,0,0,1-4,1.57,5.4,5.4,0,0,1-4-1.57c-.28-.24-.56-.51-.84-.77A8.19,8.19,0,0,0,1.58,57a.3.3,0,0,1-.26-.36l10.88-46H52.28L62.61,54.32a2.77,2.77,0,0,1-1.48,3.17,10.24,10.24,0,0,0-2.9,2.19c-.28.26-.56.53-.84.77a5.79,5.79,0,0,1-7.93,0c-.28-.24-.55-.51-.84-.77-1.35-1.31-2.88-2.8-5.83-2.8S38.3,58.37,37,59.68l-.84.77a5.55,5.55,0,0,1-7.74,0l-.84-.77c-1.35-1.31-2.89-2.8-5.83-2.8s-4.49,1.49-5.84,2.8c-.29.26-.56.53-.84.77"/><line class="cls-4" x1="15.14" y1="60.13" x2="20.41" y2="22.83"/><line class="cls-4" x1="49.25" y1="59.97" x2="44.06" y2="22.83"/></g><g id="Line"><path class="cls-5" d="M18.38,2v8.65H12.52a.53.53,0,0,1-.53-.52V2.5A.52.52,0,0,1,12.52,2Z"/><rect class="cls-5" x="18.38" y="1.98" width="5.54" height="8.66"/><rect class="cls-5" x="23.92" y="1.98" width="5.55" height="8.66"/><rect class="cls-5" x="29.47" y="1.98" width="5.54" height="8.66"/><rect class="cls-5" x="35.01" y="1.98" width="5.55" height="8.66"/><rect class="cls-5" x="40.56" y="1.98" width="5.54" height="8.66"/><path class="cls-5" d="M52.49,2.5v7.61a.53.53,0,0,1-.53.52H46.1V2H52A.52.52,0,0,1,52.49,2.5Z"/><path class="cls-5" d="M8,28.38l4.2-17.75H52.28L62.61,54.32a2.77,2.77,0,0,1-1.48,3.17,10.24,10.24,0,0,0-2.9,2.19c-.28.26-.56.53-.84.77a5.79,5.79,0,0,1-7.93,0c-.28-.24-.55-.51-.84-.77-1.35-1.31-2.88-2.8-5.83-2.8S38.3,58.37,37,59.68l-.84.77a5.55,5.55,0,0,1-7.74,0l-.84-.77c-1.35-1.31-2.89-2.8-5.83-2.8s-4.49,1.49-5.84,2.8c-.29.26-.56.53-.84.77"/><path class="cls-5" d="M15,60.45a5.44,5.44,0,0,1-4,1.57,5.4,5.4,0,0,1-4-1.57c-.28-.24-.56-.51-.84-.77A8.19,8.19,0,0,0,1.58,57a.3.3,0,0,1-.26-.36L6.2,36"/><line class="cls-6" x1="15.14" y1="60.13" x2="20.41" y2="22.83"/><line class="cls-6" x1="49.25" y1="59.97" x2="44.06" y2="22.83"/><line class="cls-6" x1="31.73" y1="62.02" x2="31.73" y2="22.83"/></g><g id="Shadow"><path class="cls-7" d="M52.28,10.63H52a.53.53,0,0,0,.53-.53V2.5A.53.53,0,0,0,52,2H39.31A33.88,33.88,0,0,1,42,8c2.68,8.13.06,10.87,3,25,1.83,8.8,4,13.42,2,15-2.86,2.23-9.31-5.31-18-3-3.19.85-2.62,2-6,3-7.44,2.32-11.87-2.46-19.15-2L1.32,56.62a.3.3,0,0,0,.26.36,8.24,8.24,0,0,1,4.68,2.69c.28.27.56.54.84.78a5.44,5.44,0,0,0,4,1.57,5.48,5.48,0,0,0,4-1.57c.28-.24.55-.51.84-.78,1.35-1.31,2.88-2.79,5.84-2.79s4.48,1.48,5.83,2.79l.84.78a5.55,5.55,0,0,0,7.74,0l.84-.78c1.35-1.31,2.89-2.79,5.84-2.79s4.48,1.48,5.83,2.79c.29.27.56.54.84.78a5.79,5.79,0,0,0,7.93,0c.28-.24.56-.51.84-.78a10.41,10.41,0,0,1,2.9-2.18,2.77,2.77,0,0,0,1.48-3.17Z"/></g><g id="Highlight"><path class="cls-8" d="M14.23,23.72c1.33-5,3.62-15.13,1.55-21.75H12.52A.53.53,0,0,0,12,2.5v7.6a.53.53,0,0,0,.53.53H12.2l-10.88,46a.3.3,0,0,0,.26.36,8.24,8.24,0,0,1,4.68,2.69c.28.27.56.54.84.78a5.44,5.44,0,0,0,4,1.57h.41a3.39,3.39,0,0,0-.94-1.71C8,57.14,7.72,52.77,8.07,48.76,8.81,40.18,12,32,14.23,23.72Z"/></g></g></g></svg>