<svg xmlns="http://www.w3.org/2000/svg" viewBox="0 0 64 64"><defs><style>.cls-1{isolation:isolate;}.cls-2{fill:#95d6ef;}.cls-3{fill:#1498c1;}.cls-4{fill:#9e5010;}.cls-5{fill:none;stroke:#000;stroke-linejoin:round;stroke-width:2px;}.cls-6{opacity:0.19;mix-blend-mode:multiply;}.cls-7{fill:#fff;mix-blend-mode:overlay;}</style></defs><title>Icon Color</title><g class="cls-1"><g id="Layer_3" data-name="Layer 3"><g id="Vector"><path class="cls-2" d="M59.25,60.25c-.09.09-.53.39-2.25.41-3.33,0-4.86-1-4.86-2V56.25a11.09,11.09,0,0,0,4.79.89,9.31,9.31,0,0,0,2.39-.24c0,.71,0,1.31,0,1.76,0,.18,0,.36,0,.53C59.38,59.66,59.39,60.11,59.25,60.25Z"/><path class="cls-2" d="M12.15,56.25v2.42c0,1-1.57,2-5,2-1.86,0-2.31-.32-2.4-.42s-.13-.58-.11-1c0-.18,0-.35,0-.53,0-.46,0-1.08,0-1.85a8.69,8.69,0,0,0,2.68.32A11.09,11.09,0,0,0,12.15,56.25Z"/><polygon class="cls-3" points="37.42 1.98 32.35 7.04 27.29 1.98 37.42 1.98"/><rect class="cls-2" x="34.2" y="4.73" width="8.38" height="4.29" transform="translate(6.39 29.16) rotate(-45)"/><rect class="cls-2" x="24.17" y="2.68" width="4.29" height="8.38" transform="translate(2.83 20.58) rotate(-44.91)"/><path class="cls-4" d="M59.25,54.79a4.54,4.54,0,0,1-2.32.35c-3,0-4.52-.8-4.89-1.55a1,1,0,0,0-.19-.25V25.66h-2v33a3.08,3.08,0,0,0,.07.61C48.66,60.37,42.36,62,32.15,62c-11.14,0-17.64-2-18-3,0,0,0,0,0,0h0c0-.12,0-.25,0-.36v-33h-2V53.74c-.49.71-2,1.4-4.79,1.4-1.86,0-2.31-.31-2.4-.41s-.13-.59-.11-1c0-.18,0-.35,0-.54,0-.44,0-1,0-1.72,0,0,0,0,0-.06h0c.48-10.81,1.66-29.47,2.75-37.14a4.89,4.89,0,0,1,3.09-3.86l9.54-3.67,6.79,6.78a1,1,0,0,0,.7.29,1,1,0,0,0,.71-.29l3.88-3.88,3.89,3.88a1,1,0,0,0,.7.29,1,1,0,0,0,.71-.29l6.86-6.86,8.76,3.75a4.9,4.9,0,0,1,3.09,3.86C57.55,22.56,58.89,44.88,59.25,54.79Z"/></g><g id="Line"><path class="cls-5" d="M13.14,59c0,2.22,8.5,4,19,4"/><path class="cls-5" d="M51.14,59c0,2.22-8.49,4-19,4"/><path class="cls-5" d="M13.15,54v4.63c0,1.65-2,3-6,3s-3.5-1.35-3.5-3c0-1.35.09-4,.24-7.28,0,.71,0,1.3,0,1.75,0,1.66-.5,3,3.5,3C10.61,56.14,12.54,55.26,13.15,54Z"/><path class="cls-5" d="M60,55.47c-.45.42-1.34.67-3.08.67-3.25,0-5.18-.88-5.79-2.1v4.63c0,1.65,2,3,6,3A5.42,5.42,0,0,0,60,61.15"/><line class="cls-5" x1="13.15" y1="54.03" x2="13.15" y2="25.66"/><path class="cls-5" d="M3.89,51.39v-.08c.49-10.94,1.67-29.59,2.76-37.23a5.88,5.88,0,0,1,3.72-4.66l9.78-3.76"/><path class="cls-5" d="M59.33,37c.6,9.53,1,18.68,1,21.66,0,1.66.5,3-3.5,3s-6-1.34-6-3v-33"/><path class="cls-5" d="M59,32.1l.06.9"/><path class="cls-5" d="M58.85,30q.07,1,.15,2.1"/><path class="cls-5" d="M44.28,5.43l9.35,4a5.92,5.92,0,0,1,3.72,4.66c.51,3.55,1,9.49,1.5,15.92"/><polygon class="cls-5" points="32.21 8.31 29.67 10.86 27.76 12.77 20.42 5.42 24.51 1.33 24.87 0.97 29.67 5.78 32.21 8.31"/><polygon class="cls-5" points="44.28 5.42 36.94 12.77 32.49 8.31 34.81 6 39.83 0.97 44.28 5.42"/><line class="cls-5" x1="24.87" y1="0.98" x2="39.83" y2="0.98"/></g><g id="Shadow"><g class="cls-6"><path d="M32.15,62c10.21,0,16.51-1.66,17.77-2.76a3.08,3.08,0,0,1-.07-.61v-33h2V53.34a1,1,0,0,1,.19.25c.37.75,1.85,1.55,4.89,1.55a4.54,4.54,0,0,0,2.32-.35c-.36-9.91-1.7-32.23-2.89-40.57a4.9,4.9,0,0,0-3.09-3.86L44.51,6.61l-6.86,6.86a1,1,0,0,1-.71.29,1,1,0,0,1-.7-.29l-1.68-1.68c.39,4.73.63,9.47.67,14.22,0,5.18-.22,10.68-3.11,15s-7.76,6.57-12.73,7.55a41.9,41.9,0,0,1-5.24.65v9.47c0,.11,0,.24,0,.36h0s0,0,0,0C14.51,60.05,21,62,32.15,62Z"/><path d="M4.85,53.68c0,.46,0,.91.11,1s.54.41,2.4.41c2.83,0,4.3-.69,4.79-1.4V49.3c-2.39.08-4.78.07-7.17.11q0,1-.09,2h0s0,0,0,.06c0,.7,0,1.28,0,1.72C4.86,53.33,4.85,53.5,4.85,53.68Z"/><path d="M12.15,58.67V56.25a11.09,11.09,0,0,1-4.79.89,8.69,8.69,0,0,1-2.68-.32c0,.77,0,1.39,0,1.85,0,.18,0,.35,0,.53,0,.47,0,.91.11,1s.54.42,2.4.42C10.58,60.67,12.15,59.63,12.15,58.67Z"/><path d="M42.87,5.42l-3-3L34.22,8c0,.23,0,.46.06.68l2.66,2.66Z"/><path d="M59.25,60.25c.14-.14.13-.59.11-1.06,0-.17,0-.35,0-.53,0-.45,0-1,0-1.76a9.31,9.31,0,0,1-2.39.24,11.09,11.09,0,0,1-4.79-.89v2.42c0,.94,1.53,2,4.86,2C58.72,60.64,59.16,60.34,59.25,60.25Z"/><path d="M33.92,5.47,37.42,2H33.5C33.66,3.14,33.78,4.31,33.92,5.47Z"/></g></g><g id="Highlight"><path class="cls-7" d="M59.35,58.66c0-.45,0-1,0-1.76a9.31,9.31,0,0,1-2.39.24,11.09,11.09,0,0,1-4.79-.89v2.42c0,.94,1.53,2,4.86,2,1.72,0,2.16-.32,2.25-.41s.13-.59.11-1.06C59.36,59,59.35,58.84,59.35,58.66Z"/><path class="cls-7" d="M4.68,56.82c0,.77,0,1.39,0,1.85,0,.18,0,.35,0,.53,0,.47,0,.91.11,1s.54.42,2.4.42c3.43,0,5-1,5-2V56.25a11.09,11.09,0,0,1-4.79.89A8.69,8.69,0,0,1,4.68,56.82Z"/><polygon class="cls-7" points="37.42 1.98 27.29 1.98 32.35 7.04 37.42 1.98"/><rect class="cls-7" x="34.2" y="4.73" width="8.38" height="4.29" transform="translate(6.42 29.21) rotate(-45.09)"/><rect class="cls-7" x="24.17" y="2.68" width="4.29" height="8.38" transform="translate(2.84 20.6) rotate(-44.95)"/><path class="cls-7" d="M10.73,10.36a4.89,4.89,0,0,0-3.09,3.86C6.55,21.89,5.37,40.55,4.89,51.36h0s0,0,0,.06c0,.7,0,1.28,0,1.72,0,.19,0,.36,0,.54,0,.46,0,.91.11,1s.54.41,2.4.41A12.78,12.78,0,0,0,9.47,55a43.48,43.48,0,0,1-1.4-8.65c-.54-6.88.29-10.92,1.29-23.16.21-2.63.44-5.71.64-9.17l5-5.29Z"/></g></g></g></svg>